#!OML:ASF X:\für Bonn\!DataBase\2005_08_12_Daniel\c3d\Daniel.ASF
:FULLY-SPECIFIED
:DEGREES
1
root -3.99949 17.2854 -1.17684 337.271 -86.5441 -345.099
lowerback 19.3202 -2.29529 1.43939
upperback -0.566666 -3.05987 -2.43891
thorax -11.7359 -1.63613 -2.62886
lowerneck 6.34844 2.20571 -3.57224
upperneck 2.9247 2.61906 1.6983
head -0.225096 1.23219 1.06213
rclavicle 9.67833e-015 -7.55382e-015
rhumerus 86.637 -32.5377 -199.433
rradius 11.9723
rwrist 162.718
rhand -23.1574 13.0944
rfingers 7.12502
rthumb 3.29107 -16.8599
lclavicle 9.67833e-015 -7.55382e-015
lhumerus 54.4574 0.321551 96.9028
lradius 8.57219
lwrist -67.8313
lhand -13.5496 3.43947
lfingers 7.12502
lthumb 12.5634 33.0417
rfemur 8.1158 27.5526 23.9615
rtibia 19.4889
rfoot -40.7862 -26.5661
rtoes -6.96354
lfemur 175.818 206.067 -200.434
ltibia 33.2467
lfoot -29.9086 13.818
ltoes -0.632555
2
root -4.0114 17.2817 -1.17739 337.364 -86.5233 -345.249
lowerback 19.0573 -2.3077 1.44042
upperback -0.488004 -3.07819 -2.45478
thorax -11.4986 -1.64412 -2.64869
lowerneck 6.46439 2.20546 -3.47326
upperneck 2.9005 2.62019 1.62668
head -0.248963 1.23338 1.02162
rclavicle -4.64908e-014 -2.5842e-014
rhumerus 86.1176 -32.6244 -198.363
rradius 11.9495
rwrist 162.057
rhand -23.2 13.0541
rfingers 7.12502
rthumb 3.24996 -16.9009
lclavicle -4.64908e-014 -2.5842e-014
lhumerus 54.4225 0.360154 96.8904
lradius 8.5892
lwrist -67.5591
lhand -13.7053 3.48729
lfingers 7.12502
lthumb 12.4133 33.0987
rfemur 8.21238 27.4741 24.009
rtibia 19.5198
rfoot -40.6723 -26.5997
rtoes -6.79229
lfemur 175.876 205.859 -200.413
ltibia 33.2926
lfoot -29.8404 13.6316
ltoes -0.629415
3
root -4.02216 17.2773 -1.17822 337.089 -86.5167 -345.058
lowerback 18.8215 -2.3072 1.4342
upperback -0.376316 -3.08284 -2.4841
thorax -11.2395 -1.64567 -2.68288
lowerneck 6.58343 2.19514 -3.36992
upperneck 2.86238 2.6086 1.55196
head -0.277215 1.22851 0.979727
rclavicle 5.74612e-015 1.51076e-014
rhumerus 85.6566 -32.6694 -197.401
rradius 11.9253
rwrist 161.396
rhand -23.1751 13.0304
rfingers 7.12502
rthumb 3.274 -16.9242
lclavicle 5.74612e-015 1.51076e-014
lhumerus 54.4398 0.370015 96.8734
lradius 8.53541
lwrist -67.4018
lhand -13.9269 3.56895
lfingers 7.12502
lthumb 12.1996 33.1932
rfemur 8.27399 27.1973 23.9649
rtibia 19.5587
rfoot -40.2738 -26.5688
rtoes -6.47802
lfemur 175.951 205.483 -200.373
ltibia 33.3288
lfoot -29.7522 13.2364
ltoes -0.689507
4
root -4.03264 17.2738 -1.17831 337.032 -86.509 -345.097
lowerback 18.6294 -2.31188 1.42981
upperback -0.275546 -3.09138 -2.49399
thorax -11.0175 -1.64851 -2.69437
lowerneck 6.7613 2.19505 -3.31119
upperneck 2.76812 2.60612 1.49139
head -0.333925 1.22803 0.949092
rclavicle -2.12762e-014 -1.27222e-014
rhumerus 85.305 -32.7613 -196.574
rradius 11.8311
rwrist 160.786
rhand -23.1656 13.0019
rfingers 7.12502
rthumb 3.28314 -16.9525
lclavicle -2.12762e-014 -1.27222e-014
lhumerus 54.4287 0.410344 96.8714
lradius 8.44437
lwrist -67.3552
lhand -14.2116 3.64218
lfingers 7.12502
lthumb 11.9251 33.2825
rfemur 8.29454 26.658 23.8382
rtibia 19.6023
rfoot -39.6683 -26.3503
rtoes -6.31473
lfemur 176.013 204.994 -200.297
ltibia 33.3628
lfoot -29.5551 12.7262
ltoes -0.816185
5
root -4.041 17.2705 -1.17837 337.112 -86.4958 -345.273
lowerback 18.4883 -2.32632 1.43011
upperback -0.193675 -3.11173 -2.50338
thorax -10.8471 -1.65746 -2.70334
lowerneck 6.97182 2.20256 -3.23549
upperneck 2.70062 2.61291 1.43315
head -0.387804 1.23162 0.915967
rclavicle -6.54747e-015 -9.54166e-015
rhumerus 85.1446 -32.8922 -196.184
rradius 11.8114
rwrist 160.544
rhand -23.186 12.9957
rfingers 7.12502
rthumb 3.26352 -16.9591
lclavicle -6.54747e-015 -9.54166e-015
lhumerus 54.4073 0.460046 96.8617
lradius 8.28695
lwrist -67.3983
lhand -14.4758 3.71986
lfingers 7.12502
lthumb 11.6703 33.3748
rfemur 8.24027 25.9145 23.637
rtibia 19.6734
rfoot -38.931 -25.9876
rtoes -6.20618
lfemur 176.055 204.508 -200.205
ltibia 33.3897
lfoot -29.3352 12.2287
ltoes -0.726929
6
root -4.04796 17.2672 -1.17859 336.769 -86.5035 -345.043
lowerback 18.3975 -2.32294 1.39825
upperback -0.105978 -3.1144 -2.50326
thorax -10.6956 -1.6561 -2.68724
lowerneck 7.18153 2.20397 -3.1592
upperneck 2.60655 2.61245 1.3428
head -0.449141 1.23237 0.872901
rclavicle -1.25296e-014 -1.63003e-014
rhumerus 85.1431 -33.0212 -196.073
rradius 11.7806
rwrist 160.416
rhand -23.1855 13.0155
rfingers 7.12502
rthumb 3.26395 -16.9392
lclavicle -1.25296e-014 -1.63003e-014
lhumerus 54.3782 0.509559 96.8766
lradius 8.14359
lwrist -67.4947
lhand -14.7325 3.78761
lfingers 7.12502
lthumb 11.4227 33.4564
rfemur 8.13782 24.963 23.3306
rtibia 19.7739
rfoot -38.0365 -25.3958
rtoes -6.27597
lfemur 176.14 204.172 -200.179
ltibia 33.4164
lfoot -29.2061 11.8427
ltoes -0.539418
7
root -4.05421 17.2636 -1.17832 336.723 -86.5115 -345.111
lowerback 18.3327 -2.33193 1.40004
upperback -0.0194272 -3.12741 -2.5132
thorax -10.5635 -1.66197 -2.69789
lowerneck 7.36657 2.2101 -3.08898
upperneck 2.53818 2.61864 1.28888
head -0.499381 1.23592 0.842393
rclavicle -2.16303e-014 9.14409e-015
rhumerus 85.1936 -33.1706 -196.089
rradius 11.7502
rwrist 160.342
rhand -23.1999 12.9909
rfingers 7.12502
rthumb 3.25004 -16.9641
lclavicle -2.16303e-014 9.14409e-015
lhumerus 54.3171 0.574163 96.8527
lradius 8.08859
lwrist -67.6832
lhand -14.8577 3.82014
lfingers 7.12502
lthumb 11.302 33.4956
rfemur 7.96721 23.8078 22.9659
rtibia 19.9119
rfoot -37.0244 -24.6611
rtoes -6.40389
lfemur 176.2 203.72 -200.103
ltibia 33.4453
lfoot -29.0087 11.4087
ltoes -0.327469
8
root -4.05928 17.2586 -1.17826 336.542 -86.5298 -345.074
lowerback 18.3387 -2.33523 1.38184
upperback 0.0582222 -3.1359 -2.51151
thorax -10.4794 -1.66451 -2.68368
lowerneck 7.6354 2.22043 -3.03594
upperneck 2.40301 2.62677 1.22357
head -0.584869 1.24077 0.810405
rclavicle 5.77718e-016 -1.31198e-014
rhumerus 85.2626 -33.3502 -196.103
rradius 11.6951
rwrist 160.163
rhand -23.2129 13.0846
rfingers 7.12502
rthumb 3.23747 -16.8706
lclavicle 5.77718e-016 -1.31198e-014
lhumerus 54.2527 0.648508 96.8465
lradius 8.04426
lwrist -67.9069
lhand -14.8774 3.85914
lfingers 7.12502
lthumb 11.283 33.5357
rfemur 7.76659 22.5083 22.555
rtibia 20.0965
rfoot -35.8807 -23.8897
rtoes -6.70208
lfemur 176.265 203.1 -199.998
ltibia 33.4838
lfoot -28.7639 10.853
ltoes -0.287069
9
root -4.06294 17.2542 -1.17751 336.383 -86.5582 -345.078
lowerback 18.3817 -2.33449 1.40074
upperback 0.164047 -3.13449 -2.53581
thorax -10.3881 -1.66528 -2.72113
lowerneck 7.78281 2.2129 -2.934
upperneck 2.32189 2.62008 1.18167
head -0.632489 1.23861 0.778974
rclavicle -3.13769e-014 -2.42517e-014
rhumerus 85.2227 -33.4766 -195.963
rradius 11.6821
rwrist 159.818
rhand -23.2284 13.1239
rfingers 7.12502
rthumb 3.22252 -16.8315
lclavicle -3.13769e-014 -2.42517e-014
lhumerus 54.2805 0.668823 96.8165
lradius 7.94924
lwrist -68.1
lhand -14.827 3.89682
lfingers 7.12502
lthumb 11.3316 33.5707
rfemur 7.52968 21.0434 22.0935
rtibia 20.328
rfoot -34.66 -22.9932
rtoes -7.06362
lfemur 176.293 202.208 -199.816
ltibia 33.5473
lfoot -28.3895 10.1047
ltoes -0.118327
10
root -4.06463 17.247 -1.17662 335.969 -86.5853 -344.854
lowerback 18.5287 -2.338 1.37374
upperback 0.234588 -3.14525 -2.53134
thorax -10.3912 -1.66894 -2.69438
lowerneck 7.96433 2.22817 -2.87543
upperneck 2.26095 2.63788 1.10934
head -0.68025 1.24811 0.744449
rclavicle -1.91082e-014 -1.23246e-014
rhumerus 85.0392 -33.662 -195.572
rradius 11.6256
rwrist 159.25
rhand -23.213 13.1643
rfingers 7.12502
rthumb 3.23739 -16.7909
lclavicle -1.91082e-014 -1.23246e-014
lhumerus 54.2864 0.746166 96.82
lradius 7.81205
lwrist -68.2671
lhand -14.7625 3.90546
lfingers 7.12502
lthumb 11.3938 33.5759
rfemur 7.26691 19.3665 21.561
rtibia 20.632
rfoot -33.405 -21.9023
rtoes -7.42606
lfemur 176.303 201.148 -199.603
ltibia 33.6374
lfoot -27.9885 9.19644
ltoes -0.0729549
